<svg width="47" height="46" viewBox="0 0 47 46" fill="none" xmlns="http://www.w3.org/2000/svg">
<g clip-path="url(#clip0_6_78)">
<path d="M28.4626 17.181C27.488 17.181 26.7664 17.4269 26.2015 17.7374C26.1109 17.4154 25.8133 17.1796 25.4626 17.25H21.1731C20.749 17.1796 20.4055 17.5232 20.5363 17.9688V33.7813C20.4055 34.1838 20.749 34.5288 21.1731 34.5H25.4626C25.8866 34.5288 26.2302 34.1838 26.2302 33.7597L26.2288 24.2032C26.2273 24.1989 26.2115 23.7418 26.5005 23.427C26.7319 23.1769 27.1301 23.0489 27.6807 23.0489C28.5978 23.0489 29.006 23.4241 29.1584 24.2636V33.7597C29.0075 34.1838 29.351 34.5288 29.7751 34.5H34.296C34.7201 34.5288 35.0637 34.1838 34.9113 33.7597V23.9445C35.0622 18.9535 31.5073 17.181 28.4626 17.181ZM33.527 33.0625H30.5427V24.2636C30.5427 22.5659 29.4459 21.5137 27.6821 21.5137C26.6845 21.5137 25.9082 21.8069 25.3735 22.3848C24.6303 23.1898 24.6878 24.2104 24.8473 24.4375V33.0625H21.9407V18.7163H24.695V19.1993C24.6938 19.3432 24.7333 19.4845 24.8089 19.6069C24.8845 19.7294 24.993 19.828 25.1222 19.8915C25.2513 19.955 25.3957 19.9808 25.5388 19.9659C25.6819 19.951 25.8179 19.8961 25.9312 19.8074L26.1325 19.6521C26.7146 19.1935 27.317 18.7177 28.4641 18.7177C29.6515 18.7177 33.5284 19.0958 33.5284 23.9459L33.527 33.0625ZM16.2223 10.0137C14.6095 10.0137 13.2985 11.3247 13.2985 12.9375C13.2985 14.5504 14.6095 15.8614 16.2223 15.8614C17.8352 15.8614 19.1462 14.5504 19.1462 12.9375C19.1462 11.3247 17.8352 10.0137 16.2223 10.0137ZM16.2223 14.3262C15.4576 14.3262 14.8337 13.7023 14.8337 12.9375C14.8337 12.1728 15.4576 11.5489 16.2223 11.5489C16.9871 11.5489 17.611 12.1728 17.611 12.9375C17.611 13.7023 16.9871 14.3262 16.2223 14.3262ZM18.2751 17.1796H14.0086C13.5845 17.1796 13.241 17.5232 13.3473 17.9688V33.7813C13.241 34.1838 13.5845 34.5288 14.0086 34.5H18.2751C18.6992 34.5288 19.0427 34.1838 19.0427 33.7597V17.9472C19.0427 17.7436 18.9618 17.5484 18.8179 17.4044C18.6739 17.2605 18.4787 17.1796 18.2751 17.1796ZM17.6598 33.0625H14.7762V18.7163H17.6598V33.0625Z" fill="white"/>
<path d="M23.4098 -0.0488281C10.6995 -0.0488281 0.360962 10.2897 0.360962 23C0.360962 35.7104 10.6995 46.0489 23.4098 46.0489C36.1202 46.0489 46.4587 35.7104 46.4587 23C46.4587 10.2897 36.1202 -0.0488281 23.4098 -0.0488281ZM23.4098 44.5137C11.5476 44.5137 1.89621 34.8623 1.89621 23C1.89621 11.1378 11.5476 1.48642 23.4098 1.48642C35.2721 1.48642 44.9235 11.1378 44.9235 23C44.9235 34.8623 35.2721 44.5137 23.4098 44.5137Z" fill="white"/>
</g>
<defs>
<clipPath id="clip0_6_78">
<rect width="46" height="46" fill="white" transform="translate(0.409851)"/>
</clipPath>
</defs>
</svg>
