<svg width="47" height="46" viewBox="0 0 47 46" fill="none" xmlns="http://www.w3.org/2000/svg">
<g clip-path="url(#clip0_6_82)">
<path d="M23.7049 -0.0488281C10.996 -0.0488281 0.654617 10.2897 0.654617 23C0.654617 35.7104 10.996 46.0489 23.7049 46.0489C36.4139 46.0489 46.7552 35.7104 46.7552 23C46.7552 10.2897 36.4139 -0.0488281 23.7049 -0.0488281ZM23.7049 44.5137C11.8427 44.5137 2.19274 34.8623 2.19274 23C2.19274 11.1378 11.8427 1.48642 23.7049 1.48642C35.5672 1.48642 45.2171 11.1378 45.2171 23C45.2171 34.8623 35.5672 44.5137 23.7049 44.5137Z" fill="white"/>
<path d="M36.3463 15.8787C36.5057 15.5835 36.6371 15.2741 36.7387 14.9544C36.7858 14.8061 36.7867 14.647 36.7415 14.4981C36.6962 14.3493 36.6069 14.2177 36.4852 14.1207C36.3636 14.0236 36.2154 13.9658 36.0602 13.9547C35.9051 13.9437 35.7502 13.98 35.616 14.0588C34.8795 14.4964 34.0821 14.8224 33.2499 15.0262C32.2397 14.1145 30.9278 13.6091 29.567 13.6074C28.8278 13.608 28.0962 13.7578 27.4162 14.048C26.7363 14.3381 26.1219 14.7625 25.6099 15.2958C25.0979 15.8292 24.6989 16.4604 24.4368 17.1516C24.1747 17.8429 24.0548 18.5799 24.0844 19.3186C20.8515 18.9116 17.8993 17.2757 15.8404 14.7502C15.7615 14.6546 15.6607 14.5793 15.5465 14.531C15.4323 14.4826 15.3081 14.4625 15.1845 14.4724C15.0609 14.4822 14.9415 14.5218 14.8364 14.5877C14.7314 14.6536 14.6438 14.7439 14.5811 14.8509C14.1096 15.6601 13.8534 16.5766 13.8368 17.513C13.8202 18.4494 14.0438 19.3744 14.4862 20.1998C14.3777 20.2181 14.2735 20.2561 14.1786 20.3119C14.0624 20.386 13.9667 20.4882 13.9004 20.6091C13.834 20.7299 13.7992 20.8655 13.7991 21.0034C13.7991 22.6349 14.525 24.1328 15.6952 25.1505L15.6449 25.2009C15.5565 25.3008 15.4957 25.422 15.4685 25.5526C15.4413 25.6832 15.4486 25.8186 15.4896 25.9455C15.7336 26.7067 16.141 27.4053 16.6833 27.9926C17.2256 28.5798 17.8897 29.0415 18.6291 29.3452C17.1105 30.086 15.4111 30.3749 13.733 30.1775C13.5605 30.1599 13.387 30.2 13.2398 30.2916C13.0926 30.3832 12.9799 30.521 12.9194 30.6835C12.8613 30.8472 12.8602 31.0257 12.9163 31.1901C12.9724 31.3545 13.0824 31.4951 13.2284 31.5891C15.5098 33.0533 18.1637 33.8312 20.8745 33.8302C29.7582 33.8302 35.0684 26.6139 35.0684 19.6377L35.0669 19.402C35.9279 18.7298 36.6757 17.9242 37.2821 17.0157C37.3739 16.8784 37.4191 16.7151 37.4109 16.5501C37.4027 16.3851 37.3416 16.2271 37.2366 16.0996C37.1316 15.972 36.9883 15.8816 36.828 15.8419C36.6676 15.8021 36.4987 15.815 36.3463 15.8787ZM33.8379 18.4015C33.7335 18.4765 33.6497 18.5764 33.5939 18.6922C33.5382 18.808 33.5123 18.9358 33.5187 19.0642C33.5274 19.2539 33.5317 19.4465 33.5317 19.6363C33.5317 25.8578 28.798 32.2935 20.8759 32.2935C19.463 32.2941 18.0601 32.057 16.7259 31.592C18.3238 31.2858 19.8249 30.6005 21.103 29.5939C21.2275 29.4958 21.3186 29.3616 21.3638 29.2098C21.4091 29.0579 21.4064 28.8958 21.3561 28.7456C21.3058 28.5954 21.2102 28.4643 21.0826 28.3704C20.955 28.2766 20.8015 28.2244 20.643 28.221C20.0232 28.2092 19.4149 28.0519 18.867 27.7617C18.3192 27.4716 17.8472 27.0567 17.4892 26.5507C17.8529 26.5262 18.2094 26.4659 18.5558 26.3724C18.7235 26.3275 18.871 26.2272 18.9743 26.0877C19.0775 25.9482 19.1305 25.7778 19.1245 25.6043C19.1185 25.4309 19.0539 25.2646 18.9412 25.1325C18.8285 25.0005 18.6744 24.9106 18.504 24.8774C17.804 24.735 17.1559 24.405 16.6289 23.9226C16.102 23.4403 15.7162 22.8237 15.5126 22.139C15.895 22.2353 16.2874 22.2914 16.6799 22.3043C17.0177 22.3029 17.331 22.0959 17.436 21.771C17.5409 21.4461 17.4173 21.0882 17.1312 20.8984C16.4549 20.4478 15.9341 19.7993 15.64 19.0416C15.3459 18.2839 15.2929 17.4539 15.4882 16.665C17.9852 19.2271 21.3568 20.7527 24.9297 20.9372C25.1827 20.9387 25.404 20.8481 25.5579 20.6627C25.7117 20.4772 25.7706 20.2314 25.716 19.9957C25.5194 19.149 25.6073 18.2611 25.9662 17.4694C26.3251 16.6778 26.9348 16.0264 27.7012 15.6162C28.4675 15.2061 29.3477 15.0599 30.2055 15.2004C31.0633 15.3408 31.8509 15.7601 32.4464 16.3933C32.5356 16.4885 32.6476 16.5595 32.7719 16.5994C32.8961 16.6394 33.0285 16.6471 33.1565 16.6219C33.3937 16.5744 33.628 16.5198 33.8594 16.4565C33.7551 16.5347 33.6466 16.6071 33.5345 16.6736C33.3855 16.7649 33.272 16.9043 33.2127 17.0688C33.1535 17.2332 33.152 17.413 33.2086 17.5784C33.2652 17.7438 33.3764 17.8849 33.524 17.9786C33.6716 18.0724 33.8467 18.113 34.0204 18.0939L34.282 18.0608C34.138 18.1795 33.9898 18.2931 33.8379 18.4015Z" fill="white"/>
</g>
<defs>
<clipPath id="clip0_6_82">
<rect width="46" height="46" fill="white" transform="translate(0.704926)"/>
</clipPath>
</defs>
</svg>
