<svg width="19" height="19" viewBox="0 0 19 19" fill="none" xmlns="http://www.w3.org/2000/svg">
<path fill-rule="evenodd" clip-rule="evenodd" d="M3.68125 13.3C3.73656 13.2263 3.80827 13.1664 3.89072 13.1252C3.97316 13.084 4.06407 13.0625 4.15625 13.0625H7.125C7.28247 13.0625 7.4335 13.1251 7.54484 13.2364C7.65619 13.3478 7.71875 13.4988 7.71875 13.6562C7.71875 13.8137 7.65619 13.9647 7.54484 14.0761C7.4335 14.1874 7.28247 14.25 7.125 14.25H4.45313L1.78125 17.8125H17.2188L14.5469 14.25H11.875C11.7175 14.25 11.5665 14.1874 11.4552 14.0761C11.3438 13.9647 11.2812 13.8137 11.2812 13.6562C11.2812 13.4988 11.3438 13.3478 11.4552 13.2364C11.5665 13.1251 11.7175 13.0625 11.875 13.0625H14.8438C14.9359 13.0625 15.0268 13.084 15.1093 13.1252C15.1917 13.1664 15.2634 13.2263 15.3187 13.3L18.8813 18.05C18.9474 18.1382 18.9877 18.2431 18.9976 18.3529C19.0075 18.4627 18.9866 18.5732 18.9373 18.6718C18.888 18.7704 18.8122 18.8534 18.7184 18.9113C18.6246 18.9693 18.5165 19 18.4062 19H0.59375C0.483484 19 0.375396 18.9693 0.281597 18.9113C0.187799 18.8534 0.111997 18.7704 0.0626841 18.6718C0.0133715 18.5732 -0.00750311 18.4627 0.00239944 18.3529C0.012302 18.2431 0.0525904 18.1382 0.11875 18.05L3.68125 13.3Z" fill="white"/>
<path fill-rule="evenodd" clip-rule="evenodd" d="M9.5 1.18755C9.03217 1.18755 8.56891 1.27969 8.13669 1.45873C7.70447 1.63776 7.31174 1.90017 6.98093 2.23098C6.65012 2.56179 6.38771 2.95452 6.20868 3.38674C6.02965 3.81896 5.9375 4.28221 5.9375 4.75005C5.9375 5.21788 6.02965 5.68114 6.20868 6.11336C6.38771 6.54558 6.65012 6.93831 6.98093 7.26912C7.31174 7.59993 7.70447 7.86234 8.13669 8.04137C8.56891 8.2204 9.03217 8.31255 9.5 8.31255C10.4448 8.31255 11.351 7.93721 12.0191 7.26912C12.6872 6.60102 13.0625 5.69488 13.0625 4.75005C13.0625 3.80521 12.6872 2.89908 12.0191 2.23098C11.351 1.56288 10.4448 1.18755 9.5 1.18755ZM4.75 4.75005C4.75009 3.83594 5.01393 2.94127 5.50987 2.1734C6.00582 1.40553 6.7128 0.797065 7.54597 0.421025C8.37915 0.0449849 9.30314 -0.0826586 10.2071 0.0534104C11.111 0.189479 11.9564 0.583481 12.642 1.18814C13.3275 1.79279 13.8241 2.58242 14.072 3.46227C14.3199 4.34212 14.3087 5.27481 14.0396 6.14843C13.7706 7.02206 13.2552 7.7995 12.5553 8.38747C11.8554 8.97544 11.0007 9.34897 10.0938 9.46324V16.0313C10.0938 16.1888 10.0312 16.3398 9.91985 16.4511C9.8085 16.5625 9.65747 16.625 9.5 16.625C9.34253 16.625 9.19151 16.5625 9.08016 16.4511C8.96881 16.3398 8.90625 16.1888 8.90625 16.0313V9.46442C7.7579 9.31974 6.70188 8.76075 5.93657 7.89245C5.17126 7.02415 4.74931 5.90748 4.75 4.75005Z" fill="white"/>
</svg>
