<svg width="47" height="46" viewBox="0 0 47 46" fill="none" xmlns="http://www.w3.org/2000/svg">
<g clip-path="url(#clip0_6_72)">
<path d="M23.1146 -0.0488281C10.4042 -0.0488281 0.0657043 10.2897 0.0657043 23C0.0657043 35.7104 10.4042 46.0489 23.1146 46.0489C35.825 46.0489 46.1635 35.7104 46.1635 23C46.1635 10.2897 35.825 -0.0488281 23.1146 -0.0488281ZM23.1146 44.5137C11.2523 44.5137 1.60095 34.8623 1.60095 23C1.60095 11.1378 11.2523 1.48642 23.1146 1.48642C34.9768 1.48642 44.6282 11.1378 44.6282 23C44.6282 34.8623 34.9768 44.5137 23.1146 44.5137Z" fill="white"/>
<path d="M28.1986 10.7334H17.2463C13.7123 10.7334 10.8481 13.5982 10.8481 17.1316V28.0839C10.8481 31.6179 13.7128 34.4822 17.2468 34.4822H28.1981C31.7321 34.4822 34.5969 31.6174 34.5969 28.0834V17.1316C34.5969 13.5977 31.7326 10.7334 28.1986 10.7334Z" stroke="white" stroke-width="2" stroke-miterlimit="10"/>
<path d="M22.7225 28.3406C25.8885 28.3406 28.4551 25.7741 28.4551 22.6081C28.4551 19.442 25.8885 16.8755 22.7225 16.8755C19.5565 16.8755 16.99 19.442 16.99 22.6081C16.99 25.7741 19.5565 28.3406 22.7225 28.3406Z" stroke="white" stroke-width="2" stroke-miterlimit="10"/>
<path d="M29.6832 16.875C30.3615 16.875 30.9114 16.3251 30.9114 15.6467C30.9114 14.9684 30.3615 14.4185 29.6832 14.4185C29.0048 14.4185 28.4549 14.9684 28.4549 15.6467C28.4549 16.3251 29.0048 16.875 29.6832 16.875Z" fill="white"/>
</g>
<defs>
<clipPath id="clip0_6_72">
<rect width="46" height="46" fill="white" transform="translate(0.114746)"/>
</clipPath>
</defs>
</svg>
