<svg width="46" height="46" viewBox="0 0 46 46" fill="none" xmlns="http://www.w3.org/2000/svg">
<g clip-path="url(#clip0_6_86)">
<path d="M23 44.4665C20.181 44.4665 17.3895 43.9113 14.7851 42.8325C12.1806 41.7537 9.81415 40.1725 7.82078 38.1791C5.82742 36.1857 4.24619 33.8193 3.16739 31.2148C2.08859 28.6104 1.53334 25.8189 1.53334 22.9999C1.53334 20.1808 2.08859 17.3894 3.16739 14.7849C4.24619 12.1805 5.82742 9.81401 7.82078 7.82064C9.81415 5.82728 12.1806 4.24606 14.7851 3.16726C17.3895 2.08845 20.181 1.5332 23 1.5332C28.6933 1.5332 34.1535 3.79486 38.1792 7.82065C42.205 11.8464 44.4667 17.3066 44.4667 22.9999C44.4667 28.6932 42.205 34.1533 38.1792 38.1791C34.1535 42.2049 28.6933 44.4665 23 44.4665ZM23 44.4665V19.9332C23 18.3065 23.6462 16.7465 24.7964 15.5963C25.9466 14.4461 27.5067 13.7999 29.1333 13.7999H30.6667M15.3333 26.0665H30.6667" stroke="white" stroke-width="2"/>
</g>
<defs>
<clipPath id="clip0_6_86">
<rect width="46" height="46" fill="white"/>
</clipPath>
</defs>
</svg>
