<svg width="14" height="19" viewBox="0 0 14 19" fill="none" xmlns="http://www.w3.org/2000/svg">
<path d="M2.28134 0.505516L3.56257 0.109667C4.1458 -0.0708219 4.77314 -0.0274303 5.32747 0.231741C5.8818 0.490913 6.32524 0.948151 6.57501 1.5181L7.3723 3.33743C7.58714 3.82754 7.64699 4.37435 7.54345 4.90112C7.43991 5.4279 7.17818 5.9082 6.79498 6.27463L5.40183 7.60706C5.38462 7.62356 5.37049 7.64314 5.36015 7.66486C5.21428 7.97045 5.43579 8.7867 6.12966 10.0202C6.9123 11.4104 7.51664 11.9598 7.79681 11.8751L9.62527 11.3011C10.126 11.1443 10.6621 11.1521 11.1583 11.3235C11.6545 11.4948 12.086 11.8212 12.3923 12.2567L13.5253 13.8662C13.881 14.3716 14.0458 14.9923 13.989 15.6129C13.9322 16.2335 13.6578 16.8118 13.2166 17.2405L12.2418 18.1865C11.9028 18.5159 11.4911 18.7563 11.042 18.8871C10.5928 19.0179 10.1195 19.0353 9.66231 18.9379C6.9478 18.3583 4.51577 16.1163 2.3454 12.2607C0.17425 8.40272 -0.502642 5.11717 0.369522 2.4151C0.515518 1.96272 0.765525 1.55304 1.09842 1.22067C1.43131 0.888302 1.83654 0.643008 2.28134 0.505516ZM2.61631 1.6424C2.34942 1.72485 2.1058 1.872 1.90604 2.07139C1.70627 2.27079 1.55624 2.51657 1.4686 2.78799C0.716844 5.11638 1.32582 8.07417 3.348 11.6669C5.36864 15.2573 7.55909 17.2761 9.89772 17.7749C10.1721 17.8334 10.4563 17.8229 10.7259 17.7443C10.9955 17.6657 11.2426 17.5214 11.446 17.3236L12.42 16.3783C12.6577 16.1476 12.8056 15.8361 12.8363 15.502C12.8669 15.1678 12.7783 14.8335 12.5868 14.5614L11.4537 12.951C11.2888 12.7166 11.0565 12.5409 10.7894 12.4486C10.5223 12.3563 10.2337 12.352 9.9641 12.4364L8.13101 13.012C7.11683 13.3216 6.16285 12.4546 5.12706 10.6131C4.24949 9.05508 3.94539 7.92929 4.3205 7.14313C4.39305 6.99112 4.49185 6.85416 4.61225 6.73857L6.0054 5.40614C6.21182 5.20883 6.35282 4.95017 6.4086 4.66647C6.46439 4.38277 6.43216 4.08828 6.31645 3.82432L5.51915 2.00579C5.38466 1.69881 5.14584 1.45255 4.84729 1.31298C4.54874 1.1734 4.21087 1.15007 3.89677 1.24734L2.61554 1.64319L2.61631 1.6424Z" fill="white"/>
</svg>
